<svg xmlns="http://www.w3.org/2000/svg" width="720" height="340" viewBox="0 0 720 340">
  <style>
    text { font-family: 'Segoe Print', 'Comic Sans MS', 'Patrick Hand', cursive; fill: #1a1a1a; }
    .label { font-size: 15px; font-weight: bold; }
    .sublabel { font-size: 12px; fill: #555; }
    .arrow { fill: none; stroke: #1a1a1a; stroke-width: 1.6; stroke-linecap: round; stroke-linejoin: round; }
    .box { fill: none; stroke: #1a1a1a; stroke-width: 1.8; stroke-linecap: round; stroke-linejoin: round; }
    .fill-green { fill: #d4edda; }
    .fill-blue { fill: #d6eaf8; }
    .fill-orange { fill: #fdebd0; }
    .fill-gray { fill: #f0f0f0; }

    @keyframes fadeN1 { 0% { opacity: 0; } 10% { opacity: 1; } }
    @keyframes fadeN2 { 0%, 12% { opacity: 0; } 24% { opacity: 1; } }
    @keyframes fadeN3 { 0%, 24% { opacity: 0; } 36% { opacity: 1; } }
    @keyframes fadeN4 { 0%, 36% { opacity: 0; } 48% { opacity: 1; } }
    @keyframes fadeN5 { 0%, 55% { opacity: 0; } 67% { opacity: 1; } }
    @keyframes drawA1 { 0%, 10% { stroke-dashoffset: 30; } 20% { stroke-dashoffset: 0; } }
    @keyframes drawA2 { 0%, 22% { stroke-dashoffset: 30; } 32% { stroke-dashoffset: 0; } }
    @keyframes drawA3 { 0%, 34% { stroke-dashoffset: 30; } 44% { stroke-dashoffset: 0; } }
    @keyframes drawA4 { 0%, 46% { stroke-dashoffset: 300; } 58% { stroke-dashoffset: 0; } }
    @keyframes drawA5 { 0%, 53% { stroke-dashoffset: 30; } 63% { stroke-dashoffset: 0; } }
    @keyframes loopGlow52 { 0%, 100% { stroke: #1a1a1a; stroke-width: 1.6; } 50% { stroke: #27ae60; stroke-width: 2.5; } }

    .n1 { animation: fadeN1 5s ease-out both; }
    .n2 { animation: fadeN2 5s ease-out both; }
    .n3 { animation: fadeN3 5s ease-out both; }
    .n4 { animation: fadeN4 5s ease-out both; }
    .n5 { animation: fadeN5 5s ease-out both; }
    .a1 { stroke-dasharray: 30; animation: drawA1 5s ease-out both; }
    .a2 { stroke-dasharray: 30; animation: drawA2 5s ease-out both; }
    .a3 { stroke-dasharray: 30; animation: drawA3 5s ease-out both; }
    .a4 { stroke-dasharray: 300; animation: drawA4 5s ease-out both, loopGlow52 3s ease-in-out 3s infinite; }
    .a5 { stroke-dasharray: 30; animation: drawA5 5s ease-out both; }
  </style>

  <rect width="720" height="340" fill="white"/>

  <text x="360" y="32" text-anchor="middle" style="font-size:20px; font-weight:bold;">52/17 Rule — Flowchart</text>

  <g class="n1">
    <path class="box fill-gray" d="M30,155 Q28,131 78,130 Q130,129 129,155 Q131,181 78,182 Q27,181 30,155"/>
    <text x="78" y="161" text-anchor="middle" class="label">Start</text>
  </g>

  <path class="arrow a1" d="M131,156 Q145,155 155,155" marker-end="url(#arrowhead)"/>

  <g class="n2">
    <path class="box fill-green" d="M170,118 L332,117 Q335,118 334,120 L335,192 Q334,195 332,194 L170,195 Q168,194 169,192 L168,120 Q169,117 170,118 Z"/>
    <text x="252" y="153" text-anchor="middle" class="label">Work</text>
    <text x="252" y="174" text-anchor="middle" class="sublabel">52 minutes</text>
  </g>

  <path class="arrow a2" d="M336,156 Q350,155 360,155" marker-end="url(#arrowhead)"/>

  <g class="n3">
    <path class="box fill-blue" d="M375,118 L537,117 Q540,118 539,120 L540,192 Q539,195 537,194 L375,195 Q373,194 374,192 L373,120 Q374,117 375,118 Z"/>
    <text x="457" y="153" text-anchor="middle" class="label">Break</text>
    <text x="457" y="174" text-anchor="middle" class="sublabel">17 minutes</text>
  </g>

  <path class="arrow a3" d="M541,156 Q555,155 565,155" marker-end="url(#arrowhead)"/>

  <g class="n4">
    <polygon class="box fill-orange" points="640,105 695,156 640,207 585,156"/>
    <text x="640" y="152" text-anchor="middle" class="label" style="font-size:13px;">Done</text>
    <text x="640" y="167" text-anchor="middle" class="label" style="font-size:13px;">?</text>
  </g>

  <path class="arrow a4" d="M640,207 Q641,245 640,265 Q639,285 457,286 Q252,287 252,230 L252,197" marker-end="url(#arrowhead)"/>
  <text x="644" y="248" class="sublabel n4" style="font-size:13px; font-weight:bold;">No</text>

  <path class="arrow a5" d="M640,105 L640,72" marker-end="url(#arrowhead)"/>
  <text x="655" y="88" class="sublabel n5" style="font-size:13px; font-weight:bold;">Yes</text>

  <g class="n5">
    <path class="box fill-gray" d="M612,47 Q610,23 640,22 Q672,23 670,47 Q672,73 640,72 Q610,73 612,47"/>
    <text x="640" y="52" text-anchor="middle" class="label" style="font-size:14px;">End</text>
  </g>

  <defs>
    <marker id="arrowhead" markerWidth="10" markerHeight="7" refX="9" refY="3.5" orient="auto">
      <path d="M0,0 L0,7 L10,3.5 Z" fill="#1a1a1a"/>
    </marker>
  </defs>
</svg>