<svg xmlns="http://www.w3.org/2000/svg" width="780" height="370" viewBox="0 0 780 370">
  <style>
    text { font-family: 'Segoe Print', 'Comic Sans MS', 'Patrick Hand', cursive; fill: #1a1a1a; }
    .label { font-size: 15px; font-weight: bold; }
    .sublabel { font-size: 12px; fill: #555; }
    .small { font-size: 11px; fill: #777; }
    .arrow { fill: none; stroke: #1a1a1a; stroke-width: 1.6; stroke-linecap: round; stroke-linejoin: round; }
    .box { fill: none; stroke: #1a1a1a; stroke-width: 1.8; stroke-linecap: round; stroke-linejoin: round; }
    .fill-green { fill: #d4edda; }
    .fill-blue { fill: #d6eaf8; }
    .fill-orange { fill: #fdebd0; }
    .fill-gray { fill: #f0f0f0; }
    .fill-red { fill: #fadbd8; }

    @keyframes fadeNode1 { 0% { opacity: 0; } 8% { opacity: 1; } }
    @keyframes fadeNode2 { 0%, 10% { opacity: 0; } 22% { opacity: 1; } }
    @keyframes fadeNode3 { 0%, 22% { opacity: 0; } 34% { opacity: 1; } }
    @keyframes fadeNode4 { 0%, 34% { opacity: 0; } 46% { opacity: 1; } }
    @keyframes fadeNode5 { 0%, 46% { opacity: 0; } 58% { opacity: 1; } }
    @keyframes fadeNode6 { 0%, 58% { opacity: 0; } 70% { opacity: 1; } }
    @keyframes drawArrow1 { 0%, 8% { stroke-dashoffset: 30; } 18% { stroke-dashoffset: 0; } }
    @keyframes drawArrow2 { 0%, 20% { stroke-dashoffset: 30; } 30% { stroke-dashoffset: 0; } }
    @keyframes drawArrow3 { 0%, 32% { stroke-dashoffset: 30; } 42% { stroke-dashoffset: 0; } }
    @keyframes drawArrow4 { 0%, 44% { stroke-dashoffset: 300; } 58% { stroke-dashoffset: 0; } }
    @keyframes drawArrow5 { 0%, 56% { stroke-dashoffset: 30; } 66% { stroke-dashoffset: 0; } }
    @keyframes drawArrow6 { 0%, 68% { stroke-dashoffset: 30; } 78% { stroke-dashoffset: 0; } }
    @keyframes loopPulse { 0%, 100% { stroke: #1a1a1a; stroke-width: 1.6; } 50% { stroke: #e8a030; stroke-width: 2.5; } }

    .n1 { animation: fadeNode1 5s ease-out both; }
    .n2 { animation: fadeNode2 5s ease-out both; }
    .n3 { animation: fadeNode3 5s ease-out both; }
    .n4 { animation: fadeNode4 5s ease-out both; }
    .n5 { animation: fadeNode5 5s ease-out both; }
    .n6 { animation: fadeNode6 5s ease-out both; }
    .a1 { stroke-dasharray: 30; animation: drawArrow1 5s ease-out both; }
    .a2 { stroke-dasharray: 30; animation: drawArrow2 5s ease-out both; }
    .a3 { stroke-dasharray: 30; animation: drawArrow3 5s ease-out both; }
    .a4 { stroke-dasharray: 300; animation: drawArrow4 5s ease-out both, loopPulse 3s ease-in-out 3s infinite; }
    .a5 { stroke-dasharray: 30; animation: drawArrow5 5s ease-out both; }
    .a6 { stroke-dasharray: 30; animation: drawArrow6 5s ease-out both; }
  </style>

  <rect width="780" height="370" fill="white"/>

  <text x="390" y="32" text-anchor="middle" style="font-size:20px; font-weight:bold;">The Classic Pomodoro — Flowchart</text>

  <!-- Start node -->
  <g class="n1">
    <path class="box fill-gray" d="M22,165 Q20,141 58,140 Q98,139 97,165 Q99,191 58,192 Q19,191 22,165"/>
    <text x="58" y="171" text-anchor="middle" class="label">Start</text>
  </g>

  <!-- Arrow Start -> Work -->
  <path class="arrow a1" d="M99,166 Q110,165 120,165" marker-end="url(#ah1)"/>

  <!-- Work block -->
  <g class="n2">
    <path class="box fill-green" d="M135,128 L270,127 Q273,128 272,130 L273,202 Q272,205 270,204 L135,205 Q133,204 134,202 L133,130 Q134,127 135,128 Z"/>
    <text x="203" y="160" text-anchor="middle" class="label">Work</text>
    <text x="203" y="180" text-anchor="middle" class="sublabel">25 minutes</text>
  </g>

  <!-- Arrow Work -> Short Break -->
  <path class="arrow a2" d="M274,166 Q285,165 295,165" marker-end="url(#ah1)"/>

  <!-- Short Break block -->
  <g class="n3">
    <path class="box fill-blue" d="M310,128 L445,127 Q448,128 447,130 L448,202 Q447,205 445,204 L310,205 Q308,204 309,202 L308,130 Q309,127 310,128 Z"/>
    <text x="378" y="155" text-anchor="middle" class="label">Short Break</text>
    <text x="378" y="175" text-anchor="middle" class="sublabel">5 minutes</text>
  </g>

  <!-- Arrow Short Break -> Round check -->
  <path class="arrow a3" d="M449,166 Q460,165 470,165" marker-end="url(#ah1)"/>

  <!-- Round check diamond -->
  <g class="n4">
    <polygon class="box fill-orange" points="540,110 600,166 540,222 480,166"/>
    <text x="540" y="158" text-anchor="middle" class="label" style="font-size:12px;">Round</text>
    <text x="540" y="174" text-anchor="middle" class="label" style="font-size:12px;">4 of 4?</text>
  </g>

  <!-- Arrow loop back (No) -->
  <path class="arrow a4" d="M540,222 Q541,255 540,270 Q539,290 378,291 Q203,292 203,240 L203,207" marker-end="url(#ah1)"/>
  <text x="547" y="255" class="sublabel n4" style="font-size:13px; font-weight:bold;">No</text>

  <!-- Arrow Round check -> Long Break (Yes) -->
  <path class="arrow a5" d="M601,166 Q612,165 625,165" marker-end="url(#ah1)"/>
  <text x="608" y="155" class="sublabel n5" style="font-size:13px; font-weight:bold;">Yes</text>

  <!-- Long Break block -->
  <g class="n5">
    <path class="box fill-red" d="M640,128 L755,127 Q758,128 757,130 L758,202 Q757,205 755,204 L640,205 Q638,204 639,202 L638,130 Q639,127 640,128 Z"/>
    <text x="698" y="155" text-anchor="middle" class="label" style="font-size:13px;">Long Break</text>
    <text x="698" y="175" text-anchor="middle" class="sublabel">15 minutes</text>
  </g>

  <!-- Arrow Long Break -> End -->
  <path class="arrow a6" d="M698,128 L698,90" marker-end="url(#ah1)"/>

  <!-- End node -->
  <g class="n6">
    <path class="box fill-gray" d="M672,65 Q670,41 698,40 Q728,41 726,65 Q728,91 698,90 Q668,91 672,65"/>
    <text x="698" y="71" text-anchor="middle" class="label" style="font-size:14px;">End</text>
  </g>

  <text x="203" y="300" text-anchor="middle" class="small n4">← repeat 4 rounds</text>

  <defs>
    <marker id="ah1" markerWidth="10" markerHeight="7" refX="9" refY="3.5" orient="auto">
      <path d="M0,0 L0,7 L10,3.5 Z" fill="#1a1a1a"/>
    </marker>
  </defs>
</svg>